<?xml version="1.0" encoding="UTF-8" standalone="no"?>
<!-- Created with Inkscape (http://www.inkscape.org/) -->

<svg
   xmlns:dc="http://purl.org/dc/elements/1.1/"
   xmlns:cc="http://creativecommons.org/ns#"
   xmlns:rdf="http://www.w3.org/1999/02/22-rdf-syntax-ns#"
   xmlns:svg="http://www.w3.org/2000/svg"
   xmlns="http://www.w3.org/2000/svg"
   xmlns:sodipodi="http://sodipodi.sourceforge.net/DTD/sodipodi-0.dtd"
   xmlns:inkscape="http://www.inkscape.org/namespaces/inkscape"
   width="742.85718"
   height="760"
   id="svg2"
   version="1.1"
   inkscape:version="0.48.5 r10040"
   sodipodi:docname="cancer.svg"
   inkscape:export-filename="/home/sinus/koehler/ownCloud/pyProjekte/LD50/gfx/cancer_fg.png"
   inkscape:export-xdpi="90"
   inkscape:export-ydpi="90">
  <defs
     id="defs4" />
  <sodipodi:namedview
     id="base"
     pagecolor="#ffffff"
     bordercolor="#666666"
     borderopacity="1.0"
     inkscape:pageopacity="0.0"
     inkscape:pageshadow="2"
     inkscape:zoom="0.79759612"
     inkscape:cx="-186.75815"
     inkscape:cy="368.90888"
     inkscape:document-units="px"
     inkscape:current-layer="layer2"
     showgrid="false"
     fit-margin-top="0"
     fit-margin-left="0"
     fit-margin-right="0"
     fit-margin-bottom="0"
     inkscape:window-width="1680"
     inkscape:window-height="1002"
     inkscape:window-x="0"
     inkscape:window-y="0"
     inkscape:window-maximized="1" />
  <metadata
     id="metadata7">
    <rdf:RDF>
      <cc:Work
         rdf:about="">
        <dc:format>image/svg+xml</dc:format>
        <dc:type
           rdf:resource="http://purl.org/dc/dcmitype/StillImage" />
        <dc:title></dc:title>
      </cc:Work>
    </rdf:RDF>
  </metadata>
  <g
     inkscape:label="Background"
     inkscape:groupmode="layer"
     id="layer1"
     transform="translate(-1.4285715,-292.36222)"
     style="display:none">
    <rect
       style="fill:#ffccaa;fill-opacity:1;stroke:none"
       id="rect2985"
       width="540.20496"
       height="760"
       x="212.85715"
       y="292.36224" />
  </g>
  <g
     inkscape:groupmode="layer"
     id="layer2"
     inkscape:label="Cancer"
     transform="translate(-1.4285715,15.999967)"
     style="display:inline">
    <g
       transform="matrix(0.6251531,0,0,0.70069624,582.46243,-117.20838)"
       id="g3776"
       inkscape:export-filename="/home/sinus/koehler/ownCloud/pyProjekte/LD50/gfx/cancer_fg.png"
       inkscape:export-xdpi="90"
       inkscape:export-ydpi="90">
      <path
         sodipodi:nodetypes="sssssssss"
         inkscape:connector-curvature="0"
         id="path3755"
         d="m -40,376.85715 c 0,48.91664 -20.720626,113.1168 -43.312512,136.68748 C -115.56037,547.18964 -185.89356,555.69082 -217.14285,554 c -48.8452,-2.64289 -126.05951,-9.82739 -140.9732,-36.16966 -22.33523,-39.45101 -36.16966,-92.05655 -36.16966,-140.97319 0,-48.91665 28.39882,-111.77379 60.45537,-143.83035 32.05655,-32.05655 68.77928,-43.19389 116.68749,-33.31251 34.63093,7.14286 96.0595,14.1131 133.830337,37.59823 C -44.813045,261.25069 -40,327.9405 -40,376.85715 z"
         style="fill:#a02c2c;fill-opacity:1;stroke:none"
         transform="translate(0,308.36218)" />
      <path
         sodipodi:nodetypes="sssssssss"
         inkscape:connector-curvature="0"
         id="path3755-5"
         d="m -70.000003,679.56068 c 0,44.23154 -40.152187,95.13992 -41.866257,132.16736 -1.87839,40.57717 -79.9078,29.53812 -105.99088,28.00924 -40.76998,-2.38976 -89.50473,-17.45758 -101.95285,-41.27686 -18.64271,-35.67251 -45.90429,-74.6682 -45.90429,-118.89974 0,-44.23155 23.70385,-101.06841 50.46073,-130.05469 26.75688,-28.98626 57.40851,-39.0569 97.39641,-30.12193 28.90566,6.45874 80.1787,12.76139 111.70517,33.99718 32.134627,21.64544 36.151967,81.94789 36.151967,126.17944 z"
         style="fill:#c83737;fill-opacity:1;stroke:none" />
    </g>
  </g>
</svg>
